<svg width="408" height="131" viewBox="0 0 408 131" fill="none" xmlns="http://www.w3.org/2000/svg">
<g clip-path="url(#clip0_22_3)">
<path d="M54.9587 129.532V59.251H70.5923V129.532H54.9587ZM67.0075 129.532V115.794H101.76V129.532H67.0075Z" fill="black"/>
<path d="M131.905 130.627C126.926 130.627 122.412 129.532 118.362 127.342C114.379 125.085 111.226 122.033 108.903 118.183C106.579 114.334 105.417 110.021 105.417 105.242C105.417 100.464 106.579 96.1835 108.903 92.4006C111.226 88.6176 114.379 85.6311 118.362 83.441C122.345 81.1849 126.86 80.0565 131.905 80.0565C136.95 80.0565 141.464 81.1515 145.447 83.3416C149.43 85.5317 152.583 88.5512 154.907 92.4006C157.23 96.1835 158.392 100.464 158.392 105.242C158.392 110.021 157.23 114.334 154.907 118.183C152.583 122.033 149.43 125.085 145.447 127.342C141.464 129.532 136.95 130.627 131.905 130.627ZM131.905 116.79C134.095 116.79 136.02 116.325 137.68 115.396C139.34 114.401 140.601 113.04 141.464 111.315C142.393 109.523 142.858 107.499 142.858 105.242C142.858 102.986 142.393 101.028 141.464 99.3689C140.535 97.6432 139.24 96.316 137.581 95.3871C135.987 94.3915 134.095 93.8937 131.905 93.8937C129.78 93.8937 127.888 94.3915 126.229 95.3871C124.569 96.316 123.275 97.6432 122.345 99.3689C121.416 101.094 120.951 103.085 120.951 105.342C120.951 107.532 121.416 109.523 122.345 111.315C123.275 113.04 124.569 114.401 126.229 115.396C127.888 116.325 129.78 116.79 131.905 116.79Z" fill="black"/>
<path d="M179.32 100.563V89.016H194.157C197.277 89.016 199.667 88.2196 201.326 86.6267C203.052 85.0339 203.915 82.8772 203.915 80.1562C203.915 77.6342 203.085 75.5438 201.426 73.8846C199.766 72.2254 197.376 71.3959 194.256 71.3959H179.32V59.251H196.048C200.696 59.251 204.778 60.1469 208.297 61.9389C211.815 63.6642 214.57 66.0865 216.561 69.2058C218.553 72.3251 219.548 75.9088 219.548 79.957C219.548 84.0716 218.553 87.6884 216.561 90.8077C214.57 93.8606 211.782 96.2496 208.197 97.9752C204.612 99.7008 200.397 100.563 195.551 100.563H179.32ZM167.371 129.532V59.251H183.004V129.532H167.371ZM205.608 129.532L183.701 99.2694L198.04 95.3871L224.129 129.532H205.608Z" fill="black"/>
<path d="M248.523 130.528C244.075 130.528 240.092 129.432 236.574 127.242C233.122 125.052 230.367 122.066 228.309 118.283C226.317 114.5 225.322 110.186 225.322 105.342C225.322 100.497 226.317 96.1835 228.309 92.4005C230.367 88.6176 233.122 85.6311 236.574 83.441C240.092 81.2513 244.075 80.1562 248.523 80.1562C251.776 80.1562 254.697 80.7865 257.286 82.0474C259.941 83.3086 262.098 85.0672 263.758 87.3234C265.417 89.5135 266.347 92.0355 266.546 94.8893V115.794C266.347 118.648 265.417 121.203 263.758 123.459C262.165 125.65 260.041 127.375 257.385 128.636C254.73 129.897 251.776 130.528 248.523 130.528ZM251.61 116.79C254.863 116.79 257.485 115.728 259.476 113.604C261.468 111.414 262.464 108.66 262.464 105.342C262.464 103.085 261.999 101.094 261.069 99.3689C260.206 97.6432 258.945 96.316 257.286 95.387C255.692 94.3914 253.834 93.8937 251.709 93.8937C249.585 93.8937 247.693 94.3914 246.033 95.387C244.44 96.316 243.146 97.6432 242.15 99.3689C241.221 101.094 240.756 103.085 240.756 105.342C240.756 107.532 241.221 109.489 242.15 111.215C243.079 112.94 244.374 114.301 246.033 115.297C247.693 116.292 249.552 116.79 251.61 116.79ZM261.866 129.532V116.491L264.156 104.744L261.866 92.9978V81.1515H276.802V129.532H261.866Z" fill="black"/>
<path d="M288.923 129.532V59.251H304.556V129.532H288.923ZM300.872 101.957V88.5182H336.022V101.957H300.872ZM300.872 72.6901V59.251H337.616V72.6901H300.872Z" fill="black"/>
<path d="M369.267 103.351L342.181 59.251H360.303L381.114 94.8893H369.463L390.277 59.251H408L380.718 103.351H369.267ZM367.373 129.532V96.1835H383.008V129.532H367.373Z" fill="black"/>
<path d="M89.9088 59.2373C93.3599 58.9771 96.0017 55.9427 95.1283 52.5944C94.2619 49.2736 92.9066 46.0876 91.0968 43.144C88.189 38.4143 84.1927 34.4476 79.4408 31.5746C74.6893 28.7015 69.3194 27.0052 63.779 26.6271C58.2385 26.2489 52.6879 27.1998 47.5897 29.4005C42.4912 31.6014 37.9928 34.988 34.4691 39.2789C30.9451 43.5697 28.4979 48.6403 27.3313 54.0682C26.1646 59.496 26.3122 65.124 27.7619 70.4831C28.664 73.8185 30.0541 76.9893 31.8778 79.8972C33.7165 82.8286 37.7373 82.987 40.2937 80.6543C42.8498 78.3216 42.9314 74.3764 41.3976 71.2747C40.7568 69.9781 40.2409 68.6181 39.8609 67.2122C38.9324 63.7803 38.838 60.1763 39.5852 56.7007C40.3321 53.2247 41.8995 49.9777 44.156 47.23C46.4125 44.4822 49.2932 42.3133 52.5581 40.9042C55.823 39.4947 59.3773 38.8859 62.9252 39.1279C66.4733 39.3703 69.9118 40.4564 72.9548 42.2963C75.9978 44.136 78.5569 46.6762 80.4188 49.705C81.1815 50.9456 81.8182 52.2535 82.3227 53.6091C83.5295 56.8522 86.4575 59.4978 89.9088 59.2373Z" fill="#2C21AF"/>
<path d="M116.369 58.2887C119.872 58.0914 122.586 55.0819 122.028 51.6185C120.787 43.9246 118.089 36.5174 114.058 29.8019C108.935 21.2656 101.811 14.1032 93.3022 8.932C84.7931 3.7608 75.1539 0.735994 65.2151 0.118296C55.2766 -0.499399 45.3368 1.30856 36.2524 5.38633C27.1685 9.46409 19.2126 15.6893 13.0708 23.5253C6.92903 31.3614 2.78564 40.5731 0.997801 50.3665C-0.790034 60.1597 -0.168673 70.2407 2.80833 79.7406C5.15039 87.2141 8.89508 94.1518 13.8224 100.191C16.0406 102.909 20.0932 102.881 22.5689 100.395C25.0446 97.9079 24.9967 93.9077 22.8528 91.1301C19.3469 86.588 16.6611 81.4487 14.9356 75.9422C12.5747 68.4085 12.0819 60.4139 13.4998 52.6474C14.9176 44.8809 18.2035 37.5756 23.0741 31.3614C27.9448 25.1471 34.2541 20.2103 41.4582 16.9765C48.6622 13.7427 56.5449 12.3089 64.4268 12.7987C72.3083 13.2886 79.9528 15.6874 86.7006 19.7884C93.4487 23.8893 99.0978 29.5694 103.161 36.3388C106.131 41.2867 108.188 46.708 109.254 52.3452C109.906 55.7926 112.865 58.4864 116.369 58.2887Z" fill="#2C21AF"/>
</g>
<defs>
<clipPath id="clip0_22_3">
<rect width="408" height="131" fill="white"/>
</clipPath>
</defs>
</svg>
