<svg width="408" height="132" viewBox="0 0 408 132" fill="none" xmlns="http://www.w3.org/2000/svg">
<path d="M54.9587 129.568V59.2675H70.5923V129.568H54.9587ZM67.0075 129.568V115.826H101.76V129.568H67.0075Z" fill="white"/>
<path d="M131.905 130.663C126.926 130.663 122.412 129.568 118.362 127.377C114.379 125.12 111.226 122.067 108.903 118.216C106.579 114.366 105.417 110.051 105.417 105.271C105.417 100.492 106.579 96.2103 108.903 92.4263C111.226 88.6423 114.379 85.655 118.362 83.4643C122.345 81.2075 126.86 80.0788 131.905 80.0788C136.95 80.0788 141.464 81.1741 145.447 83.3648C149.43 85.5555 152.583 88.5759 154.907 92.4263C157.23 96.2103 158.392 100.492 158.392 105.271C158.392 110.051 157.23 114.366 154.907 118.216C152.583 122.067 149.43 125.12 145.447 127.377C141.464 129.568 136.95 130.663 131.905 130.663ZM131.905 116.822C134.095 116.822 136.02 116.358 137.68 115.428C139.34 114.432 140.601 113.072 141.464 111.346C142.393 109.553 142.858 107.529 142.858 105.271C142.858 103.014 142.393 101.056 141.464 99.3966C140.535 97.6705 139.24 96.3428 137.581 95.4136C135.987 94.4178 134.095 93.9198 131.905 93.9198C129.78 93.9198 127.888 94.4178 126.229 95.4136C124.569 96.3428 123.275 97.6705 122.345 99.3966C121.416 101.123 120.951 103.114 120.951 105.371C120.951 107.562 121.416 109.553 122.345 111.346C123.275 113.072 124.569 114.432 126.229 115.428C127.888 116.358 129.78 116.822 131.905 116.822Z" fill="white"/>
<path d="M179.32 100.591V89.0408H194.157C197.277 89.0408 199.667 88.2442 201.326 86.6509C203.052 85.0576 203.915 82.9003 203.915 80.1786C203.915 77.6558 203.085 75.5649 201.426 73.9052C199.766 72.2455 197.376 71.4158 194.256 71.4158H179.32V59.2675H196.048C200.696 59.2675 204.778 60.1636 208.297 61.9561C211.815 63.682 214.57 66.1049 216.561 69.2251C218.553 72.3453 219.548 75.93 219.548 79.9793C219.548 84.0951 218.553 87.7129 216.561 90.833C214.57 93.8868 211.782 96.2764 208.197 98.0025C204.612 99.7286 200.397 100.591 195.551 100.591H179.32ZM167.371 129.568V59.2675H183.004V129.568H167.371ZM205.608 129.568L183.701 99.2971L198.04 95.4136L224.129 129.568H205.608Z" fill="white"/>
<path d="M248.523 130.564C244.075 130.564 240.092 129.469 236.574 127.278C233.122 125.087 230.367 122.1 228.309 118.316C226.317 114.532 225.322 110.217 225.322 105.371C225.322 100.525 226.317 96.2103 228.309 92.4263C230.367 88.6423 233.122 85.655 236.574 83.4643C240.092 81.2739 244.075 80.1786 248.523 80.1786C251.776 80.1786 254.697 80.809 257.286 82.0702C259.941 83.3318 262.098 85.0909 263.758 87.3477C265.417 89.5384 266.347 92.0612 266.546 94.9157V115.826C266.347 118.681 265.417 121.237 263.758 123.494C262.165 125.685 260.041 127.411 257.385 128.672C254.73 129.933 251.776 130.564 248.523 130.564ZM251.61 116.822C254.863 116.822 257.485 115.76 259.476 113.636C261.468 111.445 262.464 108.69 262.464 105.371C262.464 103.114 261.999 101.123 261.069 99.3966C260.206 97.6704 258.945 96.3428 257.286 95.4136C255.692 94.4178 253.834 93.9198 251.709 93.9198C249.585 93.9198 247.693 94.4178 246.033 95.4136C244.44 96.3428 243.146 97.6704 242.15 99.3966C241.221 101.123 240.756 103.114 240.756 105.371C240.756 107.562 241.221 109.52 242.15 111.246C243.079 112.972 244.374 114.333 246.033 115.329C247.693 116.324 249.552 116.822 251.61 116.822ZM261.866 129.568V116.524L264.156 104.774L261.866 93.0237V81.1741H276.802V129.568H261.866Z" fill="white"/>
<path d="M288.923 129.568V59.2675H304.556V129.568H288.923ZM300.872 101.985V88.5429H336.022V101.985H300.872ZM300.872 72.7104V59.2675H337.616V72.7104H300.872Z" fill="white"/>
<path d="M369.267 103.379L342.181 59.2675H360.303L381.114 94.9157H369.463L390.277 59.2675H408L380.718 103.379H369.267ZM367.373 129.568V96.2103H383.008V129.568H367.373Z" fill="white"/>
<path d="M89.9088 59.2538C93.3599 58.9935 96.0017 55.9582 95.1283 52.6091C94.2619 49.2873 92.9066 46.1004 91.0968 43.156C88.189 38.425 84.1927 34.4572 79.4408 31.5834C74.6893 28.7095 69.3194 27.0128 63.779 26.6345C58.2385 26.2562 52.6879 27.2074 47.5897 29.4087C42.4912 31.6102 37.9928 34.9978 34.4691 39.2898C30.9451 43.5818 28.4979 48.6538 27.3313 54.0832C26.1646 59.5126 26.3122 65.1421 27.7619 70.5027C28.664 73.8391 30.0541 77.0107 31.8778 79.9194C33.7165 82.8517 37.7373 83.0101 40.2937 80.6768C42.8498 78.3434 42.9314 74.3972 41.3976 71.2946C40.7568 69.9976 40.2409 68.6372 39.8609 67.2309C38.9324 63.7981 38.838 60.1931 39.5852 56.7165C40.3321 53.2395 41.8995 49.9916 44.156 47.2431C46.4125 44.4946 49.2932 42.3251 52.5581 40.9155C55.823 39.5057 59.3773 38.8967 62.9252 39.1388C66.4733 39.3812 69.9118 40.4676 72.9548 42.3081C75.9978 44.1483 78.5569 46.6892 80.4188 49.7188C81.1815 50.9598 81.8182 52.2681 82.3227 53.624C83.5295 56.868 86.4575 59.5144 89.9088 59.2538Z" fill="#2C21AF"/>
<path d="M116.369 58.305C119.872 58.1075 122.586 55.0973 122.028 51.6328C120.787 43.9368 118.089 36.5276 114.058 29.8102C108.935 21.2715 101.811 14.1071 93.3022 8.93449C84.7931 3.76185 75.1539 0.736199 65.2151 0.118329C55.2766 -0.499538 45.3368 1.30893 36.2524 5.38783C27.1685 9.46673 19.2126 15.6937 13.0708 23.5319C6.92903 31.3701 2.78564 40.5844 0.997801 50.3806C-0.790034 60.1764 -0.168673 70.2603 2.80833 79.7628C5.15039 87.2384 8.89508 94.178 13.8224 100.218C16.0406 102.938 20.0932 102.91 22.5689 100.422C25.0446 97.9352 24.9967 93.9338 22.8528 91.1555C19.3469 86.6121 16.6611 81.4713 14.9356 75.9633C12.5747 68.4276 12.0819 60.4308 13.4998 52.6621C14.9176 44.8934 18.2035 37.586 23.0741 31.3701C27.9448 25.1542 34.2541 20.216 41.4582 16.9812C48.6622 13.7465 56.5449 12.3123 64.4268 12.8023C72.3083 13.2923 79.9528 15.6918 86.7006 19.7939C93.4487 23.896 99.0978 29.5776 103.161 36.3489C106.131 41.2982 108.189 46.7211 109.254 52.3598C109.906 55.8081 112.865 58.5027 116.369 58.305Z" fill="#2C21AF"/>
</svg>
